<svg xmlns="http://www.w3.org/2000/svg" viewBox="0 0 120 120" aria-hidden="true">
  <ellipse cx="60" cy="78" rx="48" ry="18" fill="#fffdf9"/>
  <ellipse cx="60" cy="78" rx="40" ry="12" fill="none" stroke="#e9dccb" stroke-width="2"/>
  <path d="M30 58c-2-12 8-20 20-18 10 2 14 10 12 20-2 8-10 12-18 10-8-2-13-6-14-12z" fill="#b5551f"/>
  <path d="M34 50c2-6 10-8 14-4" fill="none" stroke="#e7a05a" stroke-width="4" stroke-linecap="round"/>
  <path d="M62 52c0-10 10-16 20-12 8 3 12 12 8 20-3 7-12 10-20 6-6-3-8-8-8-14z" fill="#b5551f"/>
  <path d="M68 46c3-5 10-6 14-2" fill="none" stroke="#e7a05a" stroke-width="4" stroke-linecap="round"/>
  <path d="M50 72c2-6 8-10 16-8 6 1 9 6 8 12-1 5-7 8-13 7-6-1-11-5-11-11z" fill="#b5551f"/>
  <path d="M86 66a10 10 0 0 1 10 10l-10 0z" fill="#f2d24b"/>
  <path d="M86 66v10h10" fill="none" stroke="#fffdf9" stroke-width="2"/>
  <path d="M28 70l-8 4M26 76l-6 6" stroke="#3b7d3a" stroke-width="3" stroke-linecap="round"/>
</svg>
